<svg width="54" height="80" viewBox="0 0 54 80" fill="none" xmlns="http://www.w3.org/2000/svg">
<path d="M49.4267 30.57L22.76 3.90336C17.5667 -1.29664 9.1 -1.29664 3.90667 3.90336C1.38667 6.41669 0 9.77002 0 13.33C0 16.89 1.38667 20.2434 3.90667 22.7567L21.1467 39.9967L3.90667 57.2367C1.38667 59.7567 0 63.1034 0 66.6634C0 70.2234 1.38667 73.57 3.90667 76.09C6.42667 78.61 9.77333 79.9967 13.3333 79.9967C16.8933 79.9967 20.24 78.61 22.76 76.09L49.4267 49.4234C51.9467 46.91 53.3333 43.5567 53.3333 39.9967C53.3333 36.4367 51.9467 33.0834 49.4267 30.57ZM44.7133 44.71L18.0467 71.3767C15.52 73.8967 11.1467 73.8967 8.62 71.3767C6.02 68.7767 6.02 64.55 8.62 61.95L30.5733 39.9967L8.62 18.0434C7.36 16.7834 6.66667 15.11 6.66667 13.33C6.66667 11.55 7.36 9.87669 8.62 8.61669C9.92 7.31669 11.6267 6.66336 13.3333 6.66336C15.04 6.66336 16.7467 7.31669 18.0467 8.61002L44.7133 35.2767C45.9733 36.5434 46.6667 38.2167 46.6667 39.9967C46.6667 41.7767 45.9733 43.45 44.7133 44.71Z" fill="#F4A261"/>
</svg>
